<mxfile host="Electron" modified="2023-06-11T15:39:24.458Z" agent="Mozilla/5.0 (X11; Linux x86_64) AppleWebKit/537.36 (KHTML, like Gecko) draw.io/21.2.8 Chrome/112.0.5615.165 Electron/24.2.0 Safari/537.36" etag="kewP5d85u-VdItfUE8FP" version="21.2.8" type="device">
  <diagram name="Page-1" id="oIT4yn8NtsooOSushozC">
    <mxGraphModel dx="1342" dy="747" grid="1" gridSize="10" guides="1" tooltips="1" connect="1" arrows="1" fold="1" page="1" pageScale="1" pageWidth="1100" pageHeight="850" math="0" shadow="0">
      <root>
        <mxCell id="0" />
        <mxCell id="1" parent="0" />
        <mxCell id="210vZUV7fOIQZZjlVDts-1" value="" style="shape=table;html=1;whiteSpace=wrap;startSize=0;container=1;collapsible=0;childLayout=tableLayout;" parent="1" vertex="1">
          <mxGeometry x="180" y="355" width="180" height="40" as="geometry" />
        </mxCell>
        <mxCell id="210vZUV7fOIQZZjlVDts-2" value="" style="shape=tableRow;horizontal=0;startSize=0;swimlaneHead=0;swimlaneBody=0;top=0;left=0;bottom=0;right=0;collapsible=0;dropTarget=0;fillColor=none;points=[[0,0.5],[1,0.5]];portConstraint=eastwest;" parent="210vZUV7fOIQZZjlVDts-1" vertex="1">
          <mxGeometry width="180" height="40" as="geometry" />
        </mxCell>
        <mxCell id="210vZUV7fOIQZZjlVDts-3" value="0.3" style="shape=partialRectangle;html=1;whiteSpace=wrap;connectable=0;fillColor=none;top=0;left=0;bottom=0;right=0;overflow=hidden;" parent="210vZUV7fOIQZZjlVDts-2" vertex="1">
          <mxGeometry width="60" height="40" as="geometry">
            <mxRectangle width="60" height="40" as="alternateBounds" />
          </mxGeometry>
        </mxCell>
        <mxCell id="210vZUV7fOIQZZjlVDts-4" value="0.5" style="shape=partialRectangle;html=1;whiteSpace=wrap;connectable=0;fillColor=none;top=0;left=0;bottom=0;right=0;overflow=hidden;" parent="210vZUV7fOIQZZjlVDts-2" vertex="1">
          <mxGeometry x="60" width="60" height="40" as="geometry">
            <mxRectangle width="60" height="40" as="alternateBounds" />
          </mxGeometry>
        </mxCell>
        <mxCell id="210vZUV7fOIQZZjlVDts-5" value="0.2" style="shape=partialRectangle;html=1;whiteSpace=wrap;connectable=0;fillColor=none;top=0;left=0;bottom=0;right=0;overflow=hidden;" parent="210vZUV7fOIQZZjlVDts-2" vertex="1">
          <mxGeometry x="120" width="60" height="40" as="geometry">
            <mxRectangle width="60" height="40" as="alternateBounds" />
          </mxGeometry>
        </mxCell>
        <mxCell id="210vZUV7fOIQZZjlVDts-7" value="" style="shape=table;html=1;whiteSpace=wrap;startSize=0;container=1;collapsible=0;childLayout=tableLayout;" parent="1" vertex="1">
          <mxGeometry x="180" y="404.39" width="120" height="40" as="geometry" />
        </mxCell>
        <mxCell id="210vZUV7fOIQZZjlVDts-8" value="" style="shape=tableRow;horizontal=0;startSize=0;swimlaneHead=0;swimlaneBody=0;top=0;left=0;bottom=0;right=0;collapsible=0;dropTarget=0;fillColor=none;points=[[0,0.5],[1,0.5]];portConstraint=eastwest;" parent="210vZUV7fOIQZZjlVDts-7" vertex="1">
          <mxGeometry width="120" height="40" as="geometry" />
        </mxCell>
        <mxCell id="210vZUV7fOIQZZjlVDts-9" value="0.2" style="shape=partialRectangle;html=1;whiteSpace=wrap;connectable=0;fillColor=none;top=0;left=0;bottom=0;right=0;overflow=hidden;" parent="210vZUV7fOIQZZjlVDts-8" vertex="1">
          <mxGeometry width="60" height="40" as="geometry">
            <mxRectangle width="60" height="40" as="alternateBounds" />
          </mxGeometry>
        </mxCell>
        <mxCell id="210vZUV7fOIQZZjlVDts-10" value="0.8" style="shape=partialRectangle;html=1;whiteSpace=wrap;connectable=0;fillColor=none;top=0;left=0;bottom=0;right=0;overflow=hidden;" parent="210vZUV7fOIQZZjlVDts-8" vertex="1">
          <mxGeometry x="60" width="60" height="40" as="geometry">
            <mxRectangle width="60" height="40" as="alternateBounds" />
          </mxGeometry>
        </mxCell>
        <mxCell id="210vZUV7fOIQZZjlVDts-12" value="" style="shape=table;html=1;whiteSpace=wrap;startSize=0;container=1;collapsible=0;childLayout=tableLayout;" parent="1" vertex="1">
          <mxGeometry x="180" y="454.38" width="180" height="80" as="geometry" />
        </mxCell>
        <mxCell id="210vZUV7fOIQZZjlVDts-13" value="" style="shape=tableRow;horizontal=0;startSize=0;swimlaneHead=0;swimlaneBody=0;top=0;left=0;bottom=0;right=0;collapsible=0;dropTarget=0;fillColor=none;points=[[0,0.5],[1,0.5]];portConstraint=eastwest;" parent="210vZUV7fOIQZZjlVDts-12" vertex="1">
          <mxGeometry width="180" height="40" as="geometry" />
        </mxCell>
        <mxCell id="210vZUV7fOIQZZjlVDts-14" value="0.3" style="shape=partialRectangle;html=1;whiteSpace=wrap;connectable=0;fillColor=none;top=0;left=0;bottom=0;right=0;overflow=hidden;" parent="210vZUV7fOIQZZjlVDts-13" vertex="1">
          <mxGeometry width="60" height="40" as="geometry">
            <mxRectangle width="60" height="40" as="alternateBounds" />
          </mxGeometry>
        </mxCell>
        <mxCell id="210vZUV7fOIQZZjlVDts-15" value="0.5" style="shape=partialRectangle;html=1;whiteSpace=wrap;connectable=0;fillColor=none;top=0;left=0;bottom=0;right=0;overflow=hidden;" parent="210vZUV7fOIQZZjlVDts-13" vertex="1">
          <mxGeometry x="60" width="60" height="40" as="geometry">
            <mxRectangle width="60" height="40" as="alternateBounds" />
          </mxGeometry>
        </mxCell>
        <mxCell id="210vZUV7fOIQZZjlVDts-16" value="0.2" style="shape=partialRectangle;html=1;whiteSpace=wrap;connectable=0;fillColor=none;top=0;left=0;bottom=0;right=0;overflow=hidden;" parent="210vZUV7fOIQZZjlVDts-13" vertex="1">
          <mxGeometry x="120" width="60" height="40" as="geometry">
            <mxRectangle width="60" height="40" as="alternateBounds" />
          </mxGeometry>
        </mxCell>
        <mxCell id="210vZUV7fOIQZZjlVDts-17" style="shape=tableRow;horizontal=0;startSize=0;swimlaneHead=0;swimlaneBody=0;top=0;left=0;bottom=0;right=0;collapsible=0;dropTarget=0;fillColor=none;points=[[0,0.5],[1,0.5]];portConstraint=eastwest;" parent="210vZUV7fOIQZZjlVDts-12" vertex="1">
          <mxGeometry y="40" width="180" height="40" as="geometry" />
        </mxCell>
        <mxCell id="210vZUV7fOIQZZjlVDts-18" value="0.2" style="shape=partialRectangle;html=1;whiteSpace=wrap;connectable=0;fillColor=none;top=0;left=0;bottom=0;right=0;overflow=hidden;" parent="210vZUV7fOIQZZjlVDts-17" vertex="1">
          <mxGeometry width="60" height="40" as="geometry">
            <mxRectangle width="60" height="40" as="alternateBounds" />
          </mxGeometry>
        </mxCell>
        <mxCell id="210vZUV7fOIQZZjlVDts-19" value="0.1" style="shape=partialRectangle;html=1;whiteSpace=wrap;connectable=0;fillColor=none;top=0;left=0;bottom=0;right=0;overflow=hidden;" parent="210vZUV7fOIQZZjlVDts-17" vertex="1">
          <mxGeometry x="60" width="60" height="40" as="geometry">
            <mxRectangle width="60" height="40" as="alternateBounds" />
          </mxGeometry>
        </mxCell>
        <mxCell id="210vZUV7fOIQZZjlVDts-20" value="0.7" style="shape=partialRectangle;html=1;whiteSpace=wrap;connectable=0;fillColor=none;top=0;left=0;bottom=0;right=0;overflow=hidden;" parent="210vZUV7fOIQZZjlVDts-17" vertex="1">
          <mxGeometry x="120" width="60" height="40" as="geometry">
            <mxRectangle width="60" height="40" as="alternateBounds" />
          </mxGeometry>
        </mxCell>
        <mxCell id="210vZUV7fOIQZZjlVDts-29" value="" style="shape=table;html=1;whiteSpace=wrap;startSize=0;container=1;collapsible=0;childLayout=tableLayout;" parent="1" vertex="1">
          <mxGeometry x="420" y="355" width="180" height="40" as="geometry" />
        </mxCell>
        <mxCell id="210vZUV7fOIQZZjlVDts-30" value="" style="shape=tableRow;horizontal=0;startSize=0;swimlaneHead=0;swimlaneBody=0;top=0;left=0;bottom=0;right=0;collapsible=0;dropTarget=0;fillColor=none;points=[[0,0.5],[1,0.5]];portConstraint=eastwest;" parent="210vZUV7fOIQZZjlVDts-29" vertex="1">
          <mxGeometry width="180" height="40" as="geometry" />
        </mxCell>
        <mxCell id="210vZUV7fOIQZZjlVDts-31" value="3" style="shape=partialRectangle;html=1;whiteSpace=wrap;connectable=0;fillColor=none;top=0;left=0;bottom=0;right=0;overflow=hidden;" parent="210vZUV7fOIQZZjlVDts-30" vertex="1">
          <mxGeometry width="60" height="40" as="geometry">
            <mxRectangle width="60" height="40" as="alternateBounds" />
          </mxGeometry>
        </mxCell>
        <mxCell id="210vZUV7fOIQZZjlVDts-32" value="1" style="shape=partialRectangle;html=1;whiteSpace=wrap;connectable=0;fillColor=none;top=0;left=0;bottom=0;right=0;overflow=hidden;" parent="210vZUV7fOIQZZjlVDts-30" vertex="1">
          <mxGeometry x="60" width="60" height="40" as="geometry">
            <mxRectangle width="60" height="40" as="alternateBounds" />
          </mxGeometry>
        </mxCell>
        <mxCell id="210vZUV7fOIQZZjlVDts-33" value="2" style="shape=partialRectangle;html=1;whiteSpace=wrap;connectable=0;fillColor=none;top=0;left=0;bottom=0;right=0;overflow=hidden;" parent="210vZUV7fOIQZZjlVDts-30" vertex="1">
          <mxGeometry x="120" width="60" height="40" as="geometry">
            <mxRectangle width="60" height="40" as="alternateBounds" />
          </mxGeometry>
        </mxCell>
        <mxCell id="210vZUV7fOIQZZjlVDts-35" value="" style="shape=table;html=1;whiteSpace=wrap;startSize=0;container=1;collapsible=0;childLayout=tableLayout;" parent="1" vertex="1">
          <mxGeometry x="420" y="404.39" width="120" height="40" as="geometry" />
        </mxCell>
        <mxCell id="210vZUV7fOIQZZjlVDts-36" value="" style="shape=tableRow;horizontal=0;startSize=0;swimlaneHead=0;swimlaneBody=0;top=0;left=0;bottom=0;right=0;collapsible=0;dropTarget=0;fillColor=none;points=[[0,0.5],[1,0.5]];portConstraint=eastwest;" parent="210vZUV7fOIQZZjlVDts-35" vertex="1">
          <mxGeometry width="120" height="40" as="geometry" />
        </mxCell>
        <mxCell id="210vZUV7fOIQZZjlVDts-37" value="1" style="shape=partialRectangle;html=1;whiteSpace=wrap;connectable=0;fillColor=none;top=0;left=0;bottom=0;right=0;overflow=hidden;" parent="210vZUV7fOIQZZjlVDts-36" vertex="1">
          <mxGeometry width="60" height="40" as="geometry">
            <mxRectangle width="60" height="40" as="alternateBounds" />
          </mxGeometry>
        </mxCell>
        <mxCell id="210vZUV7fOIQZZjlVDts-38" value="2" style="shape=partialRectangle;html=1;whiteSpace=wrap;connectable=0;fillColor=none;top=0;left=0;bottom=0;right=0;overflow=hidden;" parent="210vZUV7fOIQZZjlVDts-36" vertex="1">
          <mxGeometry x="60" width="60" height="40" as="geometry">
            <mxRectangle width="60" height="40" as="alternateBounds" />
          </mxGeometry>
        </mxCell>
        <mxCell id="210vZUV7fOIQZZjlVDts-41" value="" style="shape=table;html=1;whiteSpace=wrap;startSize=0;container=1;collapsible=0;childLayout=tableLayout;" parent="1" vertex="1">
          <mxGeometry x="420" y="475.62" width="120" height="40" as="geometry" />
        </mxCell>
        <mxCell id="210vZUV7fOIQZZjlVDts-42" value="" style="shape=tableRow;horizontal=0;startSize=0;swimlaneHead=0;swimlaneBody=0;top=0;left=0;bottom=0;right=0;collapsible=0;dropTarget=0;fillColor=none;points=[[0,0.5],[1,0.5]];portConstraint=eastwest;" parent="210vZUV7fOIQZZjlVDts-41" vertex="1">
          <mxGeometry width="120" height="40" as="geometry" />
        </mxCell>
        <mxCell id="210vZUV7fOIQZZjlVDts-43" value="V" style="shape=partialRectangle;html=1;whiteSpace=wrap;connectable=0;fillColor=none;top=0;left=0;bottom=0;right=0;overflow=hidden;" parent="210vZUV7fOIQZZjlVDts-42" vertex="1">
          <mxGeometry width="60" height="40" as="geometry">
            <mxRectangle width="60" height="40" as="alternateBounds" />
          </mxGeometry>
        </mxCell>
        <mxCell id="210vZUV7fOIQZZjlVDts-44" value="*" style="shape=partialRectangle;html=1;whiteSpace=wrap;connectable=0;fillColor=none;top=0;left=0;bottom=0;right=0;overflow=hidden;" parent="210vZUV7fOIQZZjlVDts-42" vertex="1">
          <mxGeometry x="60" width="60" height="40" as="geometry">
            <mxRectangle width="60" height="40" as="alternateBounds" />
          </mxGeometry>
        </mxCell>
        <mxCell id="210vZUV7fOIQZZjlVDts-48" value="" style="shape=singleArrow;whiteSpace=wrap;html=1;" parent="1" vertex="1">
          <mxGeometry x="375" y="365.62" width="35" height="18.75" as="geometry" />
        </mxCell>
        <mxCell id="210vZUV7fOIQZZjlVDts-50" value="" style="shape=singleArrow;whiteSpace=wrap;html=1;" parent="1" vertex="1">
          <mxGeometry x="375" y="416" width="35" height="18.75" as="geometry" />
        </mxCell>
        <mxCell id="210vZUV7fOIQZZjlVDts-54" value="" style="shape=singleArrow;whiteSpace=wrap;html=1;" parent="1" vertex="1">
          <mxGeometry x="375" y="486.25" width="35" height="18.75" as="geometry" />
        </mxCell>
        <mxCell id="210vZUV7fOIQZZjlVDts-55" value="" style="shape=curlyBracket;whiteSpace=wrap;html=1;rounded=1;flipH=1;labelPosition=right;verticalLabelPosition=middle;align=left;verticalAlign=middle;" parent="1" vertex="1">
          <mxGeometry x="620" y="355" width="20" height="165" as="geometry" />
        </mxCell>
        <mxCell id="q5M6iOLbJTrRF_Z3lJ-J-15" value="&lt;font style=&quot;font-size: 13px;&quot;&gt;slicing tree&lt;/font&gt;" style="text;html=1;align=center;verticalAlign=middle;resizable=0;points=[];autosize=1;strokeColor=none;fillColor=none;fontSize=13;fontFamily=Helvetica;fontColor=none;" parent="1" vertex="1">
          <mxGeometry x="690" y="325" width="90" height="30" as="geometry" />
        </mxCell>
        <mxCell id="q5M6iOLbJTrRF_Z3lJ-J-16" value="&lt;font style=&quot;font-size: 13px;&quot;&gt;individual&lt;/font&gt;" style="text;html=1;align=center;verticalAlign=middle;resizable=0;points=[];autosize=1;strokeColor=none;fillColor=none;fontSize=13;fontFamily=Helvetica;fontColor=none;" parent="1" vertex="1">
          <mxGeometry x="205" y="325" width="80" height="30" as="geometry" />
        </mxCell>
        <mxCell id="q5M6iOLbJTrRF_Z3lJ-J-17" value="decoded individual" style="text;html=1;align=center;verticalAlign=middle;resizable=0;points=[];autosize=1;strokeColor=none;fillColor=none;fontSize=13;fontFamily=Helvetica;fontColor=none;" parent="1" vertex="1">
          <mxGeometry x="440" y="325" width="130" height="30" as="geometry" />
        </mxCell>
        <mxCell id="SeYo-Wl1IGUGxZ8NE0Jj-1" value="" style="group" parent="1" vertex="1" connectable="0">
          <mxGeometry x="640" y="390" width="190" height="130" as="geometry" />
        </mxCell>
        <mxCell id="-sKjMYvdWHbk_XKjLefs-79" value="" style="group" vertex="1" connectable="0" parent="SeYo-Wl1IGUGxZ8NE0Jj-1">
          <mxGeometry x="25" y="-20" width="165" height="130" as="geometry" />
        </mxCell>
        <mxCell id="SeYo-Wl1IGUGxZ8NE0Jj-2" value="3" style="text;html=1;align=center;verticalAlign=middle;resizable=0;points=[[0.37,0.7,0,0,0],[0.67,0.3,0,0,0],[0.67,0.7,0,0,0]];autosize=1;strokeColor=none;fillColor=none;fontSize=13;fontFamily=Helvetica;fontColor=none;" parent="-sKjMYvdWHbk_XKjLefs-79" vertex="1">
          <mxGeometry y="41.05263157894737" width="30" height="30" as="geometry" />
        </mxCell>
        <mxCell id="SeYo-Wl1IGUGxZ8NE0Jj-3" value="" style="group" parent="-sKjMYvdWHbk_XKjLefs-79" vertex="1" connectable="0">
          <mxGeometry x="46.2" width="118.80000000000001" height="130" as="geometry" />
        </mxCell>
        <mxCell id="SeYo-Wl1IGUGxZ8NE0Jj-4" value="V" style="text;html=1;align=center;verticalAlign=middle;resizable=0;points=[[0.37,0.6,0,0,0],[0.7,0.6,0,0,0]];autosize=1;strokeColor=none;fillColor=none;fontSize=13;fontFamily=Helvetica;fontColor=none;" parent="SeYo-Wl1IGUGxZ8NE0Jj-3" vertex="1">
          <mxGeometry width="30" height="30" as="geometry" />
        </mxCell>
        <mxCell id="SeYo-Wl1IGUGxZ8NE0Jj-5" value="*" style="text;html=1;align=center;verticalAlign=middle;resizable=0;points=[[0.37,0.3,0,0,0],[0.37,0.7,0,0,0],[0.67,0.3,0,0,0],[0.67,0.7,0,0,0]];autosize=1;strokeColor=none;fillColor=none;fontSize=13;fontFamily=Helvetica;fontColor=none;" parent="SeYo-Wl1IGUGxZ8NE0Jj-3" vertex="1">
          <mxGeometry x="46.2" y="41.05263157894737" width="30" height="30" as="geometry" />
        </mxCell>
        <mxCell id="SeYo-Wl1IGUGxZ8NE0Jj-6" style="edgeStyle=none;shape=connector;rounded=0;orthogonalLoop=1;jettySize=auto;html=1;entryX=0.37;entryY=0.3;entryDx=0;entryDy=0;entryPerimeter=0;labelBackgroundColor=default;strokeColor=default;strokeWidth=0.7;fontFamily=Helvetica;fontSize=13;fontColor=none;endArrow=none;endFill=0;endSize=2;exitX=0.7;exitY=0.6;exitDx=0;exitDy=0;exitPerimeter=0;" parent="SeYo-Wl1IGUGxZ8NE0Jj-3" source="SeYo-Wl1IGUGxZ8NE0Jj-4" target="SeYo-Wl1IGUGxZ8NE0Jj-5" edge="1">
          <mxGeometry relative="1" as="geometry" />
        </mxCell>
        <mxCell id="SeYo-Wl1IGUGxZ8NE0Jj-7" value="1" style="text;html=1;align=center;verticalAlign=middle;resizable=0;points=[[0.7,0.23,0,0,0]];autosize=1;strokeColor=none;fillColor=none;fontSize=13;fontFamily=Helvetica;fontColor=none;" parent="SeYo-Wl1IGUGxZ8NE0Jj-3" vertex="1">
          <mxGeometry x="13.200000000000001" y="88.94736842105263" width="30" height="30" as="geometry" />
        </mxCell>
        <mxCell id="SeYo-Wl1IGUGxZ8NE0Jj-8" style="edgeStyle=none;shape=connector;rounded=0;orthogonalLoop=1;jettySize=auto;html=1;entryX=0.7;entryY=0.23;entryDx=0;entryDy=0;entryPerimeter=0;labelBackgroundColor=default;strokeColor=default;strokeWidth=0.7;fontFamily=Helvetica;fontSize=13;fontColor=none;endArrow=none;endFill=0;endSize=2;exitX=0.37;exitY=0.7;exitDx=0;exitDy=0;exitPerimeter=0;" parent="SeYo-Wl1IGUGxZ8NE0Jj-3" source="SeYo-Wl1IGUGxZ8NE0Jj-5" target="SeYo-Wl1IGUGxZ8NE0Jj-7" edge="1">
          <mxGeometry relative="1" as="geometry" />
        </mxCell>
        <mxCell id="SeYo-Wl1IGUGxZ8NE0Jj-9" value="2" style="text;html=1;align=center;verticalAlign=middle;resizable=0;points=[[0.4,0.27,0,0,0]];autosize=1;strokeColor=none;fillColor=none;fontSize=13;fontFamily=Helvetica;fontColor=none;" parent="SeYo-Wl1IGUGxZ8NE0Jj-3" vertex="1">
          <mxGeometry x="79.2" y="88.94736842105263" width="30" height="30" as="geometry" />
        </mxCell>
        <mxCell id="SeYo-Wl1IGUGxZ8NE0Jj-10" style="edgeStyle=none;shape=connector;rounded=0;orthogonalLoop=1;jettySize=auto;html=1;entryX=0.4;entryY=0.27;entryDx=0;entryDy=0;entryPerimeter=0;labelBackgroundColor=default;strokeColor=default;strokeWidth=0.7;fontFamily=Helvetica;fontSize=13;fontColor=none;endArrow=none;endFill=0;endSize=2;exitX=0.67;exitY=0.7;exitDx=0;exitDy=0;exitPerimeter=0;" parent="SeYo-Wl1IGUGxZ8NE0Jj-3" source="SeYo-Wl1IGUGxZ8NE0Jj-5" target="SeYo-Wl1IGUGxZ8NE0Jj-9" edge="1">
          <mxGeometry relative="1" as="geometry" />
        </mxCell>
        <mxCell id="SeYo-Wl1IGUGxZ8NE0Jj-11" style="edgeStyle=none;shape=connector;rounded=0;orthogonalLoop=1;jettySize=auto;html=1;entryX=0.67;entryY=0.3;entryDx=0;entryDy=0;entryPerimeter=0;labelBackgroundColor=default;strokeColor=default;strokeWidth=0.7;fontFamily=Helvetica;fontSize=13;fontColor=none;endArrow=none;endFill=0;endSize=2;exitX=0.37;exitY=0.6;exitDx=0;exitDy=0;exitPerimeter=0;" parent="-sKjMYvdWHbk_XKjLefs-79" source="SeYo-Wl1IGUGxZ8NE0Jj-4" target="SeYo-Wl1IGUGxZ8NE0Jj-2" edge="1">
          <mxGeometry relative="1" as="geometry" />
        </mxCell>
      </root>
    </mxGraphModel>
  </diagram>
</mxfile>
